<svg width="456" height="456" viewBox="0 0 120.65 120.65" xmlns="http://www.w3.org/2000/svg"><g paint-order="markers stroke fill"><circle cx="60.325" cy="60.325" r="35.719" fill="#D9D8D7"/><path style="-inkscape-font-specification:'FBI Old Report, Normal'" d="M59.828 24.608c-1.798.01-3.569.072-4.308.18-3.532.515-5.272.955-7.997 2.024-3.024 1.186-5.226 2.404-8.228 4.55-1.528 1.092-2.176 1.637-3.705 3.117-2.257 2.184-4.126 4.508-5.88 7.31-2.544 4.063-4.26 9.086-4.929 14.436-.128 1.027-.174 2.09-.175 4.097-.001 2.887.1 4.174.494 6.312.13.703.236 1.367.236 1.475 0 .108.042.197.093.197.238 0 3.874-1.393 4.176-1.6.015-.01-.07-.754-.19-1.653-.288-2.188-.315-6.68-.049-8.554.674-4.753 2.396-9.474 4.727-12.955 1.196-1.785 2.564-3.416 4.356-5.193 2.294-2.275 4.358-3.787 7.23-5.296 4.078-2.142 7.4-3.127 12.182-3.61 2.232-.226 4.96-.116 7.607.306 6.511 1.04 12.971 4.567 17.756 9.694 1.187 1.271 3.03 3.662 3.617 4.693.18.315.41.69.511.831.305.425 1.848 3.547 2.005 4.056.038.122.212.28.394.355.436.18.506.338.777 1.738.269 1.387.48 1.858 1.037 2.302.221.177.54.441.708.588l.307.267-.293.213c-.16.117-.45.367-.641.555l-.35.343.096.871c.052.48.096 2.178.098 3.775.004 2.525-.023 3.076-.209 4.24-.924 5.8-3.006 10.64-6.61 15.37-2.941 3.859-6.837 6.806-11.764 8.899-2.077.882-2.999 1.186-5.684 1.874-2.27.58-3.509.741-6.175.799-1.892.04-2.652.017-3.755-.116-5.8-.7-10.885-2.684-15.798-6.164-2.825-2.002-6.156-5.546-8.047-8.563-.636-1.015-1.831-3.3-2.358-4.51-.226-.518-.427-.942-.445-.942-.019 0-.42.222-.892.495-.471.273-1.329.758-1.905 1.078-.577.32-1.049.614-1.049.654 0 .323 1.328 3.085 2.372 4.933 3.248 5.75 8.306 10.645 14.307 13.846 4.357 2.324 9.65 3.796 14.724 4.094 1.303.076 5.736-.036 6.778-.172 4.74-.618 9.245-2.117 12.971-4.316 2.47-1.458 3.161-1.947 5.218-3.692 1.953-1.658 3.852-3.671 5.918-6.276 2.762-3.481 4.743-7.602 6.024-12.532.94-3.615 1.172-7.774.685-12.287-.292-2.701-.415-3.404-.932-5.304-1.381-5.078-3.734-9.712-6.959-13.709-1.749-2.168-4.687-4.955-6.833-6.484-2.688-1.914-6.033-3.654-9.193-4.782-1.888-.674-5.39-1.471-7.581-1.727-.847-.099-2.672-.14-4.47-.13zm.824 1.35c.24.01.536.03.828.06.584.06 1.556.114 2.16.12 1.004.009 1.113.028 1.303.228.121.129.227.398.256.655.044.39.018.469-.248.732-.307.305-.486.337-1.092.197-.462-.107-2.35-.29-2.997-.29-.288 0-.653-.065-.81-.146-.594-.304-.521-1.411.101-1.547.073-.015.258-.018.499-.008zm-3.626.116c.553-.009.633.015.806.242.25.327.261 1.09.022 1.353-.213.233-.974.254-1.289.035-.481-.335-.642-1.019-.33-1.4.148-.183.28-.221.791-.23zm10.067.506a.947.947 0 01.456.072c.653.272.91 1.268.448 1.728-.194.192-.878.193-1.234 0-.342-.183-.466-.42-.466-.893 0-.503.357-.866.796-.907zm-13.6.14c.31-.052.621 0 .754.188.265.375.16 1.229-.18 1.453-.197.13-.725.076-.895-.092-.287-.285-.526-.916-.421-1.11.124-.231.432-.388.742-.44zm-2.928.594a.604.604 0 01.306.068c.497.309.545 1.346.075 1.656-.059.04-.246.072-.415.073-.524.002-1.146-.928-.932-1.394.104-.227.598-.406.966-.403zm-3.163 1.162c.503.039.853.411.853 1.04 0 .216-.095.382-.35.614-.503.457-.742.472-1.261.08-.764-.58-.852-1.051-.267-1.425.368-.234.724-.332 1.025-.309zm-3.065 1.453c.095-.005.189.027.343.09.428.178.551.405.551 1.016 0 .406-.04.515-.257.684-.407.318-.842.263-1.252-.156-.192-.196-.375-.461-.408-.59-.076-.302.209-.692.673-.921.159-.079.255-.119.35-.123zm-2.575 1.46c.62.034 1.153 1.181.617 1.66-.121.107-.611.463-1.09.79-.478.328-.97.596-1.094.596-.254 0-.874-.5-.962-.775-.106-.331.23-.751 1.145-1.432.497-.37 1-.72 1.117-.78a.516.516 0 01.267-.059zm37.95 1.014c.382 0 .494.056.977.49.3.27.894.747 1.32 1.06.965.71 1.257 1.046 1.257 1.446 0 .32-.148.679-.331.8-.06.04-.262.072-.452.073-.344.002-.423-.05-1.986-1.305-.993-.796-1.424-1.25-1.585-1.668l-.169-.44.268-.228c.194-.165.386-.228.7-.228zm-5.367 3.14c-.253.002-.538.075-.538.162 0 .123-27.085.111-27.161-.012-.034-.053-.23-.096-.438-.096-.292 0-.424.057-.58.254-.277.35-.255.658.065.907.189.148.347.192.543.153.152-.03 6.616-.056 14.364-.058 13.896-.004 14.092-.006 14.282-.195.105-.105.192-.258.192-.34 0-.272-.28-.696-.498-.752a.91.91 0 00-.23-.024zm-28.595 2.44l-.258.186a.995.995 0 00-.332.476c-.041.16-.045 1.444-.01 2.855.102 3.95.096 3.89.407 4.294.53.688-.362.641 11.982.641h11.147l-.022 8.54-.025 9.218-.003.677-1.884.011-1.884.011-.023-4.456c-.019-3.458-.053-4.527-.154-4.767-.2-.472-.83-1.113-1.32-1.338-.434-.2-.541-.203-9.606-.23-5.83-.016-9.333.01-9.622.07-1.054.224-2.307 1.06-3.32 2.214-1.057 1.206-2.774 4.416-4.476 8.37-1.03 2.395-1 2.256-1.043 4.663-.021 1.171-.008 3.363.03 4.87.068 2.677.075 2.744.278 2.825.115.046.942.086 1.838.09l1.63.006.107-.412c.656-2.513 1.084-3.266 2.382-4.185 1.827-1.293 3.798-1.026 5.608.76.576.57 1.37 1.903 1.37 2.3 0 .167.046.183.366.127.362-.063.61-.26.61-.485 0-.08.362-.138 1.158-.185l1.158-.07.059-.594c.033-.327.088-1.014.123-1.526l.064-.93.645-.06c.355-.034 1.836-.062 3.29-.062h2.646l.06.314c.034.173.197.891.362 1.597l.301 1.282h1.796c1.595 0 1.796-.018 1.796-.158 0-.321.613-1.205 1.214-1.749 1.423-1.29 2.667-1.705 3.962-1.324a5.422 5.422 0 013.158 2.457c.206.346.427.672.492.726.076.062 1.379.079 3.69.048l3.574-.048.195-.34c.475-.825.59-1.076.536-1.164-.032-.05.058-.093.2-.093.156 0 .338-.098.468-.252.117-.138.311-.342.432-.453.254-.233.289-.603.065-.688-.085-.033-.414-.059-.732-.059h-.577v-1.935h1.838c1.745 0 1.848-.01 2.024-.204.178-.196.184-.386.15-4.605l-.035-4.4 1.13.069c1.287.078 1.636-.006 1.818-.442.143-.342.053-.646-.215-.73-.112-.036-2.85-.07-6.082-.078-3.233-.007-5.901-.036-5.93-.065-.028-.028-.058-.92-.068-1.983l-.017-1.933h1.986c1.093 0 4.585.04 7.76.088 5.207.079 5.795.072 6.009-.067.3-.196.378-.485.197-.74-.173-.246-.538-.258-.924-.032-.28.164-.3.163-.678-.054-.47-.268-.791-.278-8.925-.296l-5.375-.012-.049-1.427c-.027-.803-.008-1.544.045-1.694l.094-.266h6.473c6.35 0 6.474-.003 6.575-.191a.6.6 0 00-.21-.765c-.16-.098-1.523-.122-6.505-.114l-6.303.01-.44.216c-.24.118-.537.363-.657.544l-.22.329v8.749l.22.32c.12.176.388.407.595.513.358.184.577.193 4.453.196l4.077.004.064.515c.066.524.053 1.43-.025 1.65-.031.09-.439.12-1.587.12h-1.545l-.128-.266c-.114-.238-.194-.272-.76-.327-.349-.034-1.562-.067-2.696-.073-1.792-.01-2.15-.038-2.731-.213-1.175-.355-2.027-.92-2.912-1.931l-.292-.335-.049-6.842-.049-6.842 2.315-.029 2.315-.029.367-.364c.352-.349.366-.39.35-.968a269.4 269.4 0 01-.018-3.616l-.003-3.013-.262-.205c-.319-.248-.353-.25-.625-.031-.215.172-.215.174-.201 3.616.012 3.104-.003 3.45-.146 3.505-.273.104-26.862.068-27.059-.036-.098-.052-.275-.25-.393-.44-.21-.337-.216-.42-.2-2.93.009-1.42.041-2.74.071-2.932.046-.293.008-.401-.233-.67zm2.195.093c-.095.107-.232.16-.411.16h-.125c-.131-.024-.233.017-.305.124.084.106.168.219.251.337a1 1 0 01.179.356c.024.118.036.23.036.337 0 .106-.006.213-.018.32a2.406 2.406 0 000 .585c.012.012.018.024.018.036l.036.035c.06.083.09.154.09.214a.328.328 0 01-.073.212l-.017.036c-.036.036-.054.065-.054.089v1.42c-.06.06-.114.118-.161.178l-.144.142c-.083.083-.125.142-.125.177 0 .024.006.048.018.071l.036.072c.024.035.047.076.071.123l.019.054h1.467l.125-.124v-.09c-.107-.082-.203-.123-.286-.123a8.375 8.375 0 01-.215-.337.816.816 0 01-.09-.32c0-.048.006-.101.018-.16a1.92 1.92 0 01.072-.16 1.007 1.007 0 00.072-.373c.095-.071.178-.094.25-.07a.33.33 0 00.215 0 1.34 1.34 0 01.232-.054c.096-.012.18-.018.25-.018l-.035-.213c0-.012.03.006.09.053.071.048.125.06.16.036a.512.512 0 00.27-.089c.059-.059.13-.1.214-.124.024 0 .066-.053.125-.16a3.51 3.51 0 00.125-.267c.06-.082.078-.124.054-.124h.072c.024 0 .03-.017.017-.053-.012-.047-.005-.077.019-.089l.053-.213v-.71l-.072-.089a1.211 1.211 0 01-.017-.23v-.072a1.617 1.617 0 01-.126-.177.706.706 0 00-.107-.178.739.739 0 00-.107-.142.233.233 0 00-.108-.106.44.44 0 00-.34-.125h-.375c-.167 0-.293-.035-.376-.106l-.018-.036-.036-.035c-.024 0-.042.006-.054.018a.208.208 0 01-.053.035c-.048.024-.09.047-.126.071a.256.256 0 01-.143.036.46.46 0 01-.268-.107.686.686 0 00-.09-.035.16.16 0 00-.071-.018zm12.079.47a.658.658 0 00-.108.01h-.16a1.891 1.891 0 00-.465.07.488.488 0 00-.216.125.328.328 0 00-.071.213c0 .059.024.124.071.195a.54.54 0 01.125.178c.06 0 .126.03.197.088.072.048.12.095.143.143.036.082.09.183.162.301.071.107.107.184.107.231v2.255c-.131.154-.233.249-.305.284-.06.036-.089.118-.089.249 0 .094.024.171.072.23.06.072.167.107.322.107.06 0 .173-.03.34-.089.179-.047.334-.083.465-.106v-.142a10.05 10.05 0 00-.161-.249.558.558 0 01-.09-.195c.024-.024.042-.036.054-.036.024-.012 0-.041-.071-.089h.143c-.12-.094-.155-.189-.107-.284a.242.242 0 01.232-.142c.071 0 .138.048.197.142.06.083.113.178.161.284.06.107.102.207.126.302.035.083.059.13.07.142.096.107.204.213.323.32.12.118.209.225.268.32a.731.731 0 01.305-.249c.155-.07.25-.095.286-.071v-.39c-.06.023-.126.005-.197-.054a.872.872 0 00-.25-.195 2.942 2.942 0 00-.197-.107.302.302 0 01-.144-.124 2.662 2.662 0 00-.179-.337 1.944 1.944 0 00-.125-.196.932.932 0 01-.09-.142 1.17 1.17 0 01-.017-.248c0-.107.006-.19.018-.25l.053-.052.018-.018c.12-.024.191-.048.215-.071.06-.06.113-.118.161-.177a.36.36 0 01.161-.142.25.25 0 01.108-.019h.179a.641.641 0 00.16-.053.277.277 0 00.144-.142v-.16l-.054-.053c-.12 0-.25-.017-.393-.053a.976.976 0 00-.287-.071h-.161a.15.15 0 00-.125.018c-.048.012-.095.065-.143.16l-.162.32c-.06.106-.125.206-.196.301-.072.083-.15.124-.233.124-.06 0-.095-.006-.107-.018 0-.011-.012-.017-.036-.017a9.73 9.73 0 000-.835l-.054-.053a.277.277 0 00-.054-.07 1.617 1.617 0 01.072-.57c.072-.2.084-.366.036-.496a.483.483 0 00-.143-.231.362.362 0 00-.197-.106.658.658 0 00-.107-.01zm4.115.116c-.06 0-.125.006-.196.018-.06 0-.132.053-.215.16v.425a.326.326 0 00.232.178c.12.012.203.018.25.018a.507.507 0 00.233-.018.7.7 0 00.161-.089c.048-.035.072-.088.072-.16 0-.059-.036-.141-.108-.248a.708.708 0 00-.214-.266.826.826 0 00-.215-.018zm-15.066.053c.13 0 .244.053.34.16a1 1 0 01.25.337c.072.118.12.237.143.356a.99.99 0 01.054.195.928.928 0 01-.018.213.17.17 0 01-.054.124c0 .024-.012.036-.036.036l-.035.07v.302a1.363 1.363 0 01-.072.25c-.036.082-.113.153-.232.212H48.5a4.417 4.417 0 01-.054-.657c0-.201-.012-.39-.036-.568l-.035-.035a.34.34 0 01-.107-.25.34.34 0 01.053-.177 1.23 1.23 0 00.09-.177.4.4 0 00.035-.142.506.506 0 01.108-.036l.071-.035.144-.071a.557.557 0 01.304-.107zm3.006 1.065c-.06 0-.15.024-.269.072-.119.047-.196.1-.232.16a.395.395 0 00-.072.283.62.62 0 010 .213.437.437 0 01-.161.178c-.072.06-.107.112-.107.16 0 .059.072.136.215.23a.97.97 0 01.322.285 4.56 4.56 0 00-.358.266.558.558 0 00-.18.408v.515c0 .095.006.172.018.231.024.095.096.154.215.178.12.012.197.023.233.035a.279.279 0 00.072.053.28.28 0 01.071.053c.06.012.138.019.233.019h.232c.143 0 .275-.007.394-.019.12 0 .239-.082.358-.248.06.06.125.119.197.178.071.059.137.089.197.089h.68c.047-.119.09-.202.125-.249l.107-.107a.546.546 0 00.09-.337.454.454 0 00-.018-.142.313.313 0 00-.036-.142.256.256 0 01-.143.035h-.394c-.035-.012-.06-.03-.071-.053a.535.535 0 01-.018-.16 1.949 1.949 0 000-.515c0-.082.006-.153.018-.212a.426.426 0 01.143-.214c.083-.059.125-.118.125-.177 0-.06-.036-.142-.108-.249a1.835 1.835 0 00-.16-.248.225.225 0 01.09-.054.225.225 0 00.089-.053 5.05 5.05 0 01-.376-.266c-.143-.13-.269-.196-.376-.196zm3.543 0c-.048 0-.126.006-.233.018-.095.012-.173.071-.233.178v.16c.203.035.466.195.788.48.012.118.036.236.071.354a.812.812 0 01.072.249.337.337 0 01-.054.177l-.071.178c-.024.154-.03.337-.018.55a1.96 1.96 0 010 .39.669.669 0 01-.215.267.613.613 0 00-.179.178c.048.024.102.07.161.141.06.071.12.119.18.143.06.023.125.03.196.018a1.5 1.5 0 01.197-.018c.131 0 .238-.006.322-.018.083 0 .226-.053.43-.16v-.284a.807.807 0 00-.144-.142.62.62 0 01-.125-.124v-1.332c0-.06.054-.148.161-.266l.322-.32c.024-.012.03-.017.018-.017h.09c.06 0 .113.03.16.088.048.06.102.09.162.09.06 0 .077-.007.053-.019-.012-.012.012-.017.072-.017s.107.017.143.053l.143.07c-.024-.094.006-.177.09-.248a.855.855 0 00.179-.195.134.134 0 00.017-.053v-.107a.29.29 0 00-.09-.213.644.644 0 00-.232-.142.993.993 0 00-.268-.071.81.81 0 00-.215-.036c-.274 0-.465.048-.572.142a.459.459 0 01-.305.125c-.024 0-.09-.012-.196-.036a2.844 2.844 0 00-.34-.089 4.868 4.868 0 00-.34-.088.99.99 0 00-.197-.054zm10.754.107a3.07 3.07 0 00-.233.018.28.28 0 00-.232.16v.16l.053.053c.191.059.352.13.483.213v1.722c0 .06-.047.148-.142.267-.084.118-.126.206-.126.266 0 .094.03.177.09.248.071.06.155.089.25.089a.822.822 0 00.25-.07.698.698 0 01.287-.09.386.386 0 00.09-.071l.107-.106v-1.474c0-.06-.018-.09-.054-.09a.28.28 0 01-.071-.052.122.122 0 01.035-.124.264.264 0 00.072-.125c.024-.237.077-.372.16-.408.084-.035.215-.054.394-.054h.269c.131-.011.215.054.25.196a.36.36 0 010 .16c0 .047.012.083.036.106a.412.412 0 00.072.107c.035.023.048.06.036.107v.035a.441.441 0 00-.126.177c-.012.036-.005.066.018.09a.279.279 0 00.072.052c.035.012.053.024.053.036 0 .024-.018.035-.053.035a.076.076 0 00-.072 0c-.024.012-.036.042-.036.09.012.035.06.106.144.212v.036c.012 0 .017.006.017.018v.017a1.132 1.132 0 00-.143.356 1.403 1.403 0 01-.125.355c-.024.035-.03.082-.018.142a.58.58 0 01.018.142.6.6 0 00.34.16c.12.023.227.035.322.035h.108a.75.75 0 00.232 0 .756.756 0 00.233-.07.223.223 0 00.107-.196c0-.107-.054-.178-.161-.213a.641.641 0 01-.232-.143.989.989 0 01-.019-.195.333.333 0 00-.017-.195.319.319 0 00-.09-.089c-.024-.024-.036-.047-.036-.07.024-.024.048-.036.072-.036a.28.28 0 00.071-.054v-1.207c0-.012-.023-.048-.07-.107a.836.836 0 00-.162-.213 1.528 1.528 0 00-.197-.195c-.06-.06-.113-.089-.16-.089a.277.277 0 01-.055-.07c-.011-.036-.047-.054-.107-.054h-1.056c-.023 0-.041.006-.053.018a.13.13 0 01-.018.053.193.193 0 01-.072.036.635.635 0 01-.179.017c-.06 0-.167-.017-.322-.053a1.149 1.149 0 00-.304-.071zm4.277.035c-.024.06-.084.149-.18.267a1.422 1.422 0 01-.268.266c0 .071-.006.148-.018.23v.214c0 .154.018.32.054.497.048.178.12.343.215.497.012.048 0 .101-.036.16-.022.037-.019.06.004.074l-.094-.02c.084.07.126.16.126.266-.203.177-.293.355-.269.532-.107.071-.19.119-.25.142a.554.554 0 00-.107.036c-.024.012-.036.041-.036.089v.426a.148.148 0 00.017.124c.06.106.155.22.287.338.13.118.226.195.286.23.06.036.125.042.197.018a.42.42 0 01.215.018c.047.023.101.047.16.071.06.036.12.053.18.053s.119-.017.178-.053c.06-.024.114-.048.162-.071a.309.309 0 01.268-.018c.095.036.185-.006.268-.124a.587.587 0 00.09.071c.036.036.066.053.09.053.023-.059.1-.118.232-.177a.988.988 0 01.286-.09c.12-.07.167-.17.143-.301-.012-.13 0-.225.036-.284.024-.047.048-.09.072-.125.036-.023.054-.047.054-.07a.39.39 0 01-.18-.267 1.405 1.405 0 01-.286-.106 7.941 7.941 0 01-.268-.16h-.09a.838.838 0 01-.16-.018.7.7 0 01-.162-.089c-.047-.035-.072-.094-.072-.177 0-.06.007-.089.019-.089.024-.012.035-.03.035-.053.143.024.233.006.269-.053-.036-.083-.048-.13-.036-.142.012-.024.036-.042.072-.054l.143-.035a.345.345 0 00.16-.16l.144-.249c.048-.095.09-.19.125-.284a.703.703 0 00.018-.355 1.394 1.394 0 010-.32c.024-.047.048-.088.072-.124a.191.191 0 00.053-.142c0-.13-.036-.219-.107-.266a4.912 4.912 0 01-.197-.124c-.06-.048-.113-.072-.161-.072zm-6.925.196c-.096 0-.215.012-.358.035a.409.409 0 00-.305.16v.16a.35.35 0 00.162.16.68.68 0 00.214.035h.25a.766.766 0 01.233 0c.048.06.084.118.108.178.035.059.072.112.107.16v.905a.32.32 0 00-.107.23c0 .084-.006.173-.018.267a.595.595 0 01-.071.267c-.036.083-.126.165-.269.248a.325.325 0 00-.269-.142c-.06 0-.119.03-.178.09a.777.777 0 00-.162.176c.06 0 .138.024.233.072.096.047.179.082.25.106a.968.968 0 00.054-.125c.024-.035.066-.053.126-.053h.036a.05.05 0 00.035.018l.054.054c.024.011.048.03.071.053a.669.669 0 00.161.017h.376c.072.012.126.006.162-.017.06-.036.136-.089.232-.16.095-.083.167-.112.215-.089 0-.012-.006-.024-.018-.035v-.071a.4.4 0 00-.125-.018.238.238 0 01-.108-.09.263.263 0 00-.071-.123.786.786 0 01-.072-.142.467.467 0 01-.018-.231 1.94 1.94 0 00.018-.23c0-.06-.006-.13-.018-.214 0-.094.006-.172.018-.23.024-.024.048-.036.072-.036.035-.012.053-.048.053-.107v-1.26a.475.475 0 00-.125.088c-.024.024-.06.036-.108.036a.707.707 0 01-.214-.018 1.067 1.067 0 01-.143-.106 1.549 1.549 0 00-.25-.018zm-11.077.195c.131 0 .239.065.322.195.096.119.144.208.144.267 0 .095-.03.177-.09.248a.316.316 0 01-.233.09.56.56 0 01-.232-.072 3.233 3.233 0 00-.233-.107v-.426a.605.605 0 01.125-.124.365.365 0 01.197-.071zm18.825.267c.083 0 .179.012.286.035.12.024.173.124.161.302a1.06 1.06 0 01-.107.142c-.012.024.006.036.053.036.048 0 .072.029.072.088 0 .06-.012.089-.036.089-.012 0-.006.012.018.035a.573.573 0 010 .285.99.99 0 00-.09.106l-.09.089h-.554a9.705 9.705 0 01-.179-.39 1.656 1.656 0 01-.017-.267c0-.166.018-.296.053-.39.036-.107.18-.16.43-.16zM52.58 41.645c.06 0 .137.03.233.089.107.059.208.136.304.23v.16c-.06.024-.138.071-.233.142-.084.06-.155.119-.215.178h-.429a.498.498 0 00-.126-.195.358.358 0 01-.07-.196c0-.035.023-.077.07-.124a.834.834 0 01.162-.125.71.71 0 01.178-.106.313.313 0 01.126-.053zm18.753 1.474c.095 0 .184.035.268.106.095.071.208.19.34.355v.142c-.096.024-.197.06-.304.107a.58.58 0 01-.25.089c-.06 0-.156-.042-.287-.125a1.34 1.34 0 00-.304-.142l-.072-.053v-.16c.06-.083.16-.16.304-.23a.958.958 0 01.305-.09zm-41.47 2.638c.331 0 .724.351.791.707.044.232-.029.513-.284 1.104-.188.437-.477 1.23-.643 1.762-.205.66-.37 1.017-.515 1.118-.272.189-.364.186-.66-.018-.361-.25-.576-.535-.58-.771-.001-.116.262-.943.587-1.838.612-1.691.848-2.064 1.304-2.064zm59.277 4.364a.505.505 0 00-.323.143c-.21.189-.247.62-.07.797.065.063.241.116.393.116.21 0 .3-.063.379-.266.168-.432-.069-.797-.38-.79zM27.91 51.62a.771.771 0 01.569.214c.205.204.208.237.087.915-.204 1.137-.395 2.606-.399 3.054-.003.466-.207.933-.446 1.024-.317.12-.609.055-.86-.195-.33-.328-.333-.704-.017-2.883.21-1.455.265-1.665.483-1.882a.863.863 0 01.583-.247zm55.253.816c-2.373 0-2.731.02-2.87.157-.237.235-.155.73.145.88.27.134 5.713.181 5.91.05.44-.291.34-.926-.16-1.025-.172-.034-1.533-.062-3.025-.062zm10.56 2.05c.414.062.549.433.66 1.82l.164 2.044c.054.667.04.756-.15.943-.363.361-1.056.172-1.266-.345-.127-.314-.348-3.629-.264-3.961.066-.258.556-.545.856-.5zm-42.835.747V69.08h-14.56l.064-.83c.067-.87.328-1.656 1.107-3.332.21-.452.423-.922.474-1.044l.092-.222 5.2-.02 5.2-.02.28-.309c.314-.35.388-.575.722-2.207.195-.953.243-1.512.268-3.121l.031-1.96-1.853.003c-1.019.001-2.05.046-2.291.1-.242.055-.8.275-1.24.49-.944.461-1.734 1.23-2.582 2.513-.659.997-1.463 2.438-1.692 3.033l-.17.442h-.669c-.647 0-.772-.053-.577-.246.051-.051.514-.937 1.028-1.969 1.55-3.105 2.36-4.102 3.923-4.83l.564-.261 3.34-.03zm1.075.01h5.367c5.835 0 5.689-.014 6.13.543.201.254.204.319.204 6.213 0 5.801-.006 5.967-.2 6.365-.305.625-.592.717-2.229.717H59.86v-.968h-1.17v.968h-2.822l-.065-.484-.064-.484h-.67c-.64 0-.67.01-.67.23 0 .126-.028.366-.061.532-.034.166-.089.293-.122.282-.034-.012-.566-.035-1.183-.052l-1.121-.03.025-6.916zm24.355 1.003c-.254 0-.474.009-.598.026l-.45.061v2.388l1.438.027c.791.014 1.455.017 1.475.006.02-.01.005-.56-.034-1.22l-.07-1.2-.954-.062a13.106 13.106 0 00-.807-.026zm-28.71.835h1.164l-.065 1.185c-.058 1.073-.44 3.644-.603 4.065-.06.157-.322.17-3.566.17-3.373 0-3.787-.036-3.325-.28.096-.052.307-.347.469-.657.617-1.184 1.573-2.604 2.135-3.175.958-.97 1.934-1.308 3.79-1.308zm35.731.001c-2.772-.001-2.91.008-3.096.193-.237.235-.248.458-.034.693.15.165.38.178 3.203.178h3.042l.113-.248a.61.61 0 00-.219-.743c-.059-.039-1.413-.072-3.009-.073zm-29.428.967v1.6c0 1.332.025 1.609.146 1.655.08.03.147.149.147.263.002.724.413 1.35 1.024 1.558.567.193 1.252.019 1.772-.453l.213-.192.4.318c.327.262.504.327.982.361.7.05 1.065-.081 1.46-.529.232-.261.293-.42.293-.762 0-.31.039-.432.139-.432.076 0 .208-.069.292-.152.126-.125.154-.416.154-1.631v-1.479l-.893-.063c-.49-.034-2.07-.062-3.51-.062zm.878 1.064h2.479c1.363 0 2.537.022 2.609.05.095.035.12.227.097.725-.021.442-.072.673-.146.665a74.986 74.986 0 01-.797-.104c-.375-.05-1.483-.076-2.462-.059l-1.78.031v-.654zM27.105 60.57a.56.56 0 01.32.146c.209.206.22.289.339 2.58.109 2.096.077 2.4-.272 2.584-.446.237-.791.089-1.08-.463-.135-.26-.363-3.995-.266-4.379.082-.321.579-.523.959-.468zm66.815.091c.224.007.442.075.571.203.187.185.2.277.15 1.04-.032.46-.082 1.36-.114 1.998-.068 1.373-.16 1.723-.491 1.873-.378.17-.594.134-.81-.137-.186-.236-.195-.357-.158-2.443.037-2.11.047-2.203.25-2.365.148-.12.377-.175.602-.169zm-37.912.659c.573-.03.584-.025.558.212-.015.133-.125.338-.244.457-.227.226-.699.35-.948.25-.208-.084-.29-.233-.291-.532-.002-.302.1-.344.925-.387zm1.801.018h.642c.793 0 1.02.108 1.02.484 0 .181-.069.32-.19.383-.258.138-.812.126-1.008-.02-.09-.067-.23-.285-.313-.484zm11.999.266l.427.39a6.712 6.712 0 002.217 1.357c.706.255.772.26 3.427.291l2.706.032v1.196h-8.777v-1.633zm-12.803 1.792c-.32.04-.461.212-.46.537.003.335.085.456.44.644.376.2.813.122 1.095-.196.277-.312.285-.68.016-.822-.112-.06-.432-.131-.712-.16a1.695 1.695 0 00-.38-.003zm22.653.845h1.274c1.488 0 1.694.066 1.599.515-.081.382-.195.514-.272.314-.05-.126-.255-.152-1.213-.152-.767 0-1.193.04-1.271.117-.091.09-.117.015-.117-.34zm-34.15 1.742l.033.825.032.826 1.17-.027 1.17-.027.028-.799.029-.798h-1.23zm19.341 0h13.826l-.048 3.987c-.026 2.192-.066 4.005-.09 4.028-.068.069-1.204.083-3.727.047l-2.36-.033-.353-.526c-.452-.676-1.664-1.912-2.09-2.13a9.207 9.207 0 00-.873-.364c-.54-.193-.713-.195-16.661-.174l-16.117.022v-.79l13.386-.025 13.385-.026.526-.296c.293-.165.66-.48.829-.71.298-.409.304-.437.335-1.713zm-15.82 5.903h1.956v.664c0 .365-.028.866-.062 1.113l-.062.45h-1.723l-.485-.714c-.453-.667-1.125-1.32-1.358-1.32a.218.218 0 01-.162-.096c-.04-.064.617-.097 1.896-.097zm12.282.002c.814.002 1.706.022 2.02.06l.495.058-.694.69c-.382.38-.753.831-.825 1.004-.13.313-.133.315-.825.317-.383 0-.79.026-.904.056-.115.031-.232.018-.26-.03-.052-.081-.555-1.99-.555-2.102 0-.036.735-.054 1.548-.053zm-22.348.018c.694.016 1.303.053 1.349.098.032.032-.082.16-.253.285-.672.488-1.456 2.096-1.796 3.686l-.057.266H36.46l-.028-2.123-.028-2.123.7-.065c.385-.036 1.164-.04 1.858-.024zm28.261.562c-.49 0-.981.052-1.29.155-1.524.51-2.66 2.257-2.54 3.908.118 1.632 1.374 3.102 2.971 3.475 1.261.294 2.742-.16 3.645-1.119.516-.547 1.057-1.738 1.132-2.49.064-.653-.33-1.9-.792-2.5-.391-.508-1.174-1.05-1.838-1.274-.308-.103-.798-.155-1.288-.155zm-23.212.057c-1.589-.008-2.38.343-3.075 1.365-.69 1.014-.961 2.19-.732 3.17.193.829.455 1.325 1.01 1.914.498.528.926.779 1.7.995 1.014.283 2.443-.004 3.31-.664.545-.414 1.01-1.111 1.258-1.888.28-.876.263-1.535-.067-2.531-.236-.711-.345-.893-.808-1.344-.8-.779-1.392-1.012-2.596-1.017zM67.33 73.56c1.87.034 3.216 2.193 2.3 3.937-.327.626-1.018 1.193-1.637 1.348-1.008.252-1.976.025-2.62-.613-.6-.597-.879-1.229-.876-1.992.005-1.402.98-2.459 2.453-2.658.129-.017.256-.024.38-.022zm-23.328.069c.395.02.77.088 1.005.2 1.275.613 1.877 2.432 1.219 3.682-.32.609-1.022 1.18-1.639 1.334-1.508.377-2.773-.339-3.22-1.823-.402-1.335.353-2.977 1.517-3.298.31-.085.723-.115 1.118-.095zm46.438.572a.814.814 0 01.584.244c.33.327.32.855-.029 1.483-1.123 2.03-1.66 2.874-1.926 3.036-.39.238-.596.225-.878-.054-.453-.45-.423-.626.321-1.87.802-1.34 1.191-2.063 1.191-2.214 0-.06.091-.223.202-.364a.688.688 0 01.535-.261zm-23.261.99c-.187 0-.38.025-.57.076-.797.213-1.064 1.234-.552 2.102.137.23.257.42.268.42.012.002.196.065.41.143.696.25 1.367-.01 1.764-.682.29-.49.29-1.01 0-1.448-.257-.39-.761-.61-1.32-.61zm-23.331.033c-.347-.004-.696.057-.89.186-.889.59-.672 2.072.371 2.532.415.183.706.167 1.192-.067.962-.462 1.073-1.809.2-2.443-.182-.134-.527-.204-.873-.208zm-8.62 2.51c-.03.004-.042.03-.042.08 0 .071.053.182.117.245.158.157.273.146.273-.025 0-.078-.088-.189-.195-.246-.075-.04-.123-.058-.153-.054zm-2.897.073c.276-.055.523.006.66.2.086.119.394.565.684.991.29.426.706 1.03.924 1.345.276.397.379.632.339.774-.155.55-.276.73-.556.826-.324.112-.345.114-.561.035-.267-.098-.5-.356-1.466-1.625-1.099-1.444-1.2-1.687-.862-2.047.256-.272.562-.443.838-.499zm11.658 10.626c.499 0 .712.177.861.713.143.513-.036 1.085-.398 1.27-.362.186-.462.184-.878-.023-.995-.496-.685-1.96.415-1.96zm31.05.653c.52 0 .85.652.587 1.155-.225.428-.513.637-1.82 1.314-1.386.72-1.525.768-1.828.649-.26-.103-.61-.636-.61-.931 0-.205.5-.71.703-.71.157 0 1.825-.858 2.307-1.187.234-.16.531-.29.661-.29zm-28.392.811c.192-.001.42.074.724.227.261.131.973.388 1.581.57.869.26 1.134.38 1.233.559.15.272.103 1.077-.075 1.29-.174.208-.529.182-1.32-.099a39.094 39.094 0 00-1.267-.422c-1.196-.37-1.493-.604-1.58-1.25-.045-.328-.013-.428.199-.638.157-.156.313-.235.505-.237zm4.985 1.656c.291-.016.722.045 1.378.178.576.117 1.53.24 2.12.272l1.073.06.165.338c.21.43.117.933-.216 1.172a1.418 1.418 0 01-.485.216c-.418.072-4.019-.594-4.292-.793-.334-.244-.475-.822-.284-1.16.098-.175.25-.268.54-.283zm16.196.033a.648.648 0 01.252.049c.553.25.707 1.126.286 1.63a.734.734 0 01-1.024.103c-.528-.412-.728-1.176-.387-1.472.226-.195.588-.316.873-.31zm-2.74.718c.408 0 .448.024.58.336.194.461.177.754-.061 1.054-.268.339-.616.33-.976-.028-.326-.323-.38-.796-.133-1.147.119-.168.248-.215.59-.215zm-2.934.384c.495-.008.829.401.826 1.107-.002.354-.07.474-.358.624-.624.326-1.3-.24-1.3-1.09 0-.281.052-.369.289-.49.195-.1.378-.149.543-.151z" font-size="17.762" font-family="FBI Old Report" fill="#56779c"/></g></svg>